{
  "accessors": [
    {
      "bufferView": 0,
      "byteOffset": 0,
      "componentType": 5123,
      "count": 1824,
      "type": "SCALAR",
      "max": [1743],
      "min": [0]
    },
    {
      "bufferView": 1,
      "byteOffset": 0,
      "componentType": 5126,
      "count": 1744,
      "type": "VEC3",
      "max": [353.78759765625, 32.27783203125, 8],
      "min": [6.0205078125, -3.1201171875, 0],
      "name": "POSITION"
    },
    {
      "bufferView": 1,
      "byteOffset": 12,
      "componentType": 5126,
      "count": 1744,
      "type": "VEC3",
      "max": [1.0000044107437134, 1.0000044107437134, 1.0000044107437134],
      "min": [-1.0000044107437134, -1.0000044107437134, -1.0000044107437134],
      "name": "NORMAL"
    }
  ],
  "asset": { "generator": "Aspose.3D 24.1.0", "version": "2.0" },
  "buffers": [
    {
      "uri": "data:application/octet-stream;base64,",
      "byteLength": 47432
    }
  ],
  "bufferViews": [
    { "buffer": 0, "byteOffset": 0, "byteLength": 3648, "target": 34963 },
    {
      "buffer": 0,
      "byteOffset": 3652,
      "byteLength": 43776,
      "byteStride": 24,
      "target": 34962
    }
  ],
  "meshes": [
    {
      "primitives": [
        {
          "attributes": { "POSITION": 1, "NORMAL": 2 },
          "indices": 0,
          "mode": 4
        }
      ],
      "name": ""
    }
  ],
  "nodes": [{ "mesh": 0, "name": "" }],
  "scene": 0,
  "scenes": [{ "nodes": [0] }]
}
